<svg width="24" height="24" viewBox="0 0 24 24" fill="currentColor" xmlns="http://www.w3.org/2000/svg">
<path d="M8.99609 6.98926V16.9766H7.34863V8.94434L4.9082 9.77148V8.41113L8.79785 6.98926H8.99609Z" fill="black"/>
<path d="M19.0924 11.166V12.793C19.0924 13.5723 19.0149 14.2376 18.86 14.7891C18.7096 15.3359 18.4908 15.7803 18.2037 16.1221C17.9166 16.4639 17.5725 16.7145 17.1715 16.874C16.775 17.0335 16.3307 17.1133 15.8385 17.1133C15.4465 17.1133 15.082 17.0632 14.7447 16.9629C14.412 16.8626 14.1113 16.7054 13.8424 16.4912C13.5735 16.277 13.3434 16.0013 13.152 15.6641C12.9651 15.3223 12.8193 14.9144 12.7145 14.4404C12.6142 13.9665 12.5641 13.4173 12.5641 12.793V11.166C12.5641 10.3822 12.6415 9.72135 12.7965 9.18359C12.9514 8.64128 13.1725 8.2015 13.4596 7.86426C13.7467 7.52246 14.0885 7.27409 14.485 7.11914C14.886 6.96419 15.3326 6.88672 15.8248 6.88672C16.2213 6.88672 16.5859 6.93685 16.9186 7.03711C17.2558 7.13281 17.5566 7.28548 17.8209 7.49512C18.0898 7.70475 18.3176 7.97819 18.5045 8.31543C18.6959 8.64811 18.8417 9.05143 18.942 9.52539C19.0423 9.99479 19.0924 10.5417 19.0924 11.166ZM17.4449 13.0254V10.9199C17.4449 10.5234 17.4221 10.1748 17.3766 9.87402C17.331 9.56868 17.2626 9.3112 17.1715 9.10156C17.0849 8.88737 16.9755 8.71419 16.8434 8.58203C16.7112 8.44531 16.5608 8.34733 16.3922 8.28809C16.2236 8.22428 16.0344 8.19238 15.8248 8.19238C15.5696 8.19238 15.3417 8.24251 15.1412 8.34277C14.9407 8.43848 14.7721 8.59342 14.6354 8.80762C14.4986 9.02181 14.3938 9.30436 14.3209 9.65527C14.2525 10.0016 14.2184 10.4232 14.2184 10.9199V13.0254C14.2184 13.4264 14.2411 13.7796 14.2867 14.085C14.3323 14.3903 14.4007 14.6523 14.4918 14.8711C14.5829 15.0853 14.6923 15.263 14.8199 15.4043C14.9521 15.541 15.1025 15.6413 15.2711 15.7051C15.4443 15.7689 15.6334 15.8008 15.8385 15.8008C16.0982 15.8008 16.3284 15.7507 16.5289 15.6504C16.7294 15.5501 16.898 15.3906 17.0348 15.1719C17.1715 14.9486 17.274 14.6592 17.3424 14.3037C17.4107 13.9482 17.4449 13.5221 17.4449 13.0254Z" fill="black"/>
</svg>
