<svg width="24" height="24" viewBox="0 0 24 24" fill="currentColor" xmlns="http://www.w3.org/2000/svg">
<path d="M8.90332 7.05762V17.0449H7.25586V9.0127L4.81543 9.83984V8.47949L8.70508 7.05762H8.90332Z" fill="black"/>
<path d="M19.1842 15.7324V17.0449H12.5123V15.917L15.7525 12.3828C16.108 11.9818 16.3883 11.6354 16.5934 11.3438C16.7984 11.0521 16.942 10.79 17.024 10.5576C17.1106 10.3206 17.1539 10.0905 17.1539 9.86719C17.1539 9.55273 17.0947 9.27702 16.9762 9.04004C16.8622 8.7985 16.6936 8.60938 16.4703 8.47266C16.247 8.33138 15.9758 8.26074 15.6568 8.26074C15.2877 8.26074 14.9778 8.34049 14.7271 8.5C14.4765 8.65951 14.2874 8.88053 14.1598 9.16309C14.0322 9.44108 13.9684 9.76009 13.9684 10.1201H12.3209C12.3209 9.54134 12.4531 9.0127 12.7174 8.53418C12.9817 8.05111 13.3645 7.66829 13.8658 7.38574C14.3671 7.09863 14.971 6.95508 15.6773 6.95508C16.3427 6.95508 16.9078 7.06673 17.3727 7.29004C17.8375 7.51335 18.1907 7.83008 18.4322 8.24023C18.6783 8.65039 18.8014 9.13574 18.8014 9.69629C18.8014 10.0062 18.7512 10.3138 18.651 10.6191C18.5507 10.9245 18.4072 11.2298 18.2203 11.5352C18.038 11.8359 17.8215 12.139 17.5709 12.4443C17.3202 12.7451 17.0445 13.0505 16.7437 13.3604L14.5904 15.7324H19.1842Z" fill="black"/>
</svg>
