<svg width="23" height="24" viewBox="0 0 23 24" fill="currentColor" xmlns="http://www.w3.org/2000/svg">
<path d="M14.5557 14.2627C14.5557 14.8825 14.4121 15.4043 14.125 15.8281C13.8379 16.252 13.446 16.5732 12.9492 16.792C12.457 17.0062 11.901 17.1133 11.2812 17.1133C10.6615 17.1133 10.1032 17.0062 9.60645 16.792C9.1097 16.5732 8.71777 16.252 8.43066 15.8281C8.14355 15.4043 8 14.8825 8 14.2627C8 13.8525 8.07975 13.4811 8.23926 13.1484C8.39876 12.8112 8.62435 12.5218 8.91602 12.2803C9.21224 12.0342 9.55859 11.8451 9.95508 11.7129C10.3561 11.5807 10.7936 11.5146 11.2676 11.5146C11.8965 11.5146 12.4593 11.6309 12.9561 11.8633C13.4528 12.0957 13.8424 12.417 14.125 12.8271C14.4121 13.2373 14.5557 13.7158 14.5557 14.2627ZM12.9014 14.1807C12.9014 13.848 12.833 13.5563 12.6963 13.3057C12.5596 13.055 12.3682 12.8613 12.1221 12.7246C11.876 12.5879 11.5911 12.5195 11.2676 12.5195C10.9395 12.5195 10.6546 12.5879 10.4131 12.7246C10.1715 12.8613 9.98242 13.055 9.8457 13.3057C9.71354 13.5563 9.64746 13.848 9.64746 14.1807C9.64746 14.5179 9.71354 14.8096 9.8457 15.0557C9.97786 15.2972 10.167 15.4818 10.4131 15.6094C10.6592 15.737 10.9486 15.8008 11.2812 15.8008C11.6139 15.8008 11.901 15.737 12.1426 15.6094C12.3841 15.4818 12.571 15.2972 12.7031 15.0557C12.8353 14.8096 12.9014 14.5179 12.9014 14.1807ZM14.3301 9.6416C14.3301 10.1383 14.1979 10.5804 13.9336 10.9678C13.6738 11.3551 13.3138 11.6605 12.8535 11.8838C12.3932 12.1025 11.8691 12.2119 11.2812 12.2119C10.6888 12.2119 10.1602 12.1025 9.69531 11.8838C9.23503 11.6605 8.87272 11.3551 8.6084 10.9678C8.34863 10.5804 8.21875 10.1383 8.21875 9.6416C8.21875 9.04915 8.34863 8.55013 8.6084 8.14453C8.87272 7.73438 9.23503 7.4222 9.69531 7.20801C10.1556 6.99382 10.682 6.88672 11.2744 6.88672C11.8669 6.88672 12.3932 6.99382 12.8535 7.20801C13.3138 7.4222 13.6738 7.73438 13.9336 8.14453C14.1979 8.55013 14.3301 9.04915 14.3301 9.6416ZM12.6826 9.69629C12.6826 9.40007 12.6234 9.1403 12.5049 8.91699C12.391 8.68913 12.2292 8.51139 12.0195 8.38379C11.8099 8.25618 11.5615 8.19238 11.2744 8.19238C10.9873 8.19238 10.7389 8.25391 10.5293 8.37695C10.3197 8.5 10.1579 8.67318 10.0439 8.89648C9.93001 9.11979 9.87305 9.38639 9.87305 9.69629C9.87305 10.0016 9.93001 10.2682 10.0439 10.4961C10.1579 10.7194 10.3197 10.8949 10.5293 11.0225C10.7435 11.1501 10.9941 11.2139 11.2812 11.2139C11.5684 11.2139 11.8167 11.1501 12.0264 11.0225C12.236 10.8949 12.3978 10.7194 12.5117 10.4961C12.6257 10.2682 12.6826 10.0016 12.6826 9.69629Z" fill="black"/>
</svg>
