<svg width="32" height="32" viewBox="0 0 32 32" fill="none" xmlns="http://www.w3.org/2000/svg">
<rect width="32" height="32" rx="4" fill="url(#paint0_linear_17313_103401)"/>
<path d="M19.6621 9.43359V9.83105C19.1322 9.91699 18.6595 10.1999 18.2441 10.6797C17.9434 11.0378 17.4958 11.8792 16.9014 13.2041L11.8848 24.333H11.5303L6.53516 12.7529C5.93359 11.3564 5.52897 10.5365 5.32129 10.293C5.12077 10.0495 4.73763 9.89551 4.17188 9.83105V9.43359H11.1543V9.83105H10.918C10.2878 9.83105 9.85807 9.90983 9.62891 10.0674C9.46419 10.1748 9.38184 10.3324 9.38184 10.54C9.38184 10.6689 9.41048 10.8229 9.46777 11.002C9.52507 11.1738 9.71842 11.6429 10.0479 12.4092L13.1523 19.6602L16.0312 13.2041C16.375 12.4235 16.5863 11.9007 16.665 11.6357C16.7438 11.3708 16.7832 11.1452 16.7832 10.959C16.7832 10.7441 16.7259 10.5544 16.6113 10.3896C16.4967 10.2249 16.3285 10.0996 16.1064 10.0137C15.7985 9.89193 15.3903 9.83105 14.8818 9.83105V9.43359H19.6621Z" fill="#FFFFFE"/>
<rect x="23" y="8" width="2" height="17" fill="#FFFFFE"/>
<path d="M27 8C26 8 24 8.2 24 9C24 8.2 22 8 21 8" stroke="#FFFFFE" stroke-linecap="round"/>
<path d="M21 25C22 25 24 24.8 24 24C24 24.8 26 25 27 25" stroke="#FFFFFE" stroke-linecap="round"/>
<path d="M22 16H26" stroke="#FFFFFE" stroke-linecap="round"/>
<defs>
<linearGradient id="paint0_linear_17313_103401" x1="16" y1="0" x2="16" y2="32" gradientUnits="userSpaceOnUse">
<stop stop-color="#FF8E3D"/>
<stop offset="1" stop-color="#D65900"/>
</linearGradient>
</defs>
</svg>
