<svg width="24" height="24" viewBox="0 0 24 24" fill="currentColor" xmlns="http://www.w3.org/2000/svg">
<path d="M17.9502 4.7168L18.1113 8.13281H17.7031C17.6243 7.53125 17.5169 7.10156 17.3809 6.84375C17.1589 6.42839 16.8617 6.12402 16.4893 5.93066C16.124 5.73014 15.6406 5.62988 15.0391 5.62988H12.9873V16.7588C12.9873 17.654 13.084 18.2126 13.2773 18.4346C13.5495 18.7354 13.9684 18.8857 14.5342 18.8857H15.0391V19.2832H8.8623V18.8857H9.37793C9.99382 18.8857 10.4307 18.6995 10.6885 18.3271C10.846 18.098 10.9248 17.5752 10.9248 16.7588V5.62988H9.17383C8.49349 5.62988 8.01009 5.68001 7.72363 5.78027C7.35124 5.91634 7.03255 6.17773 6.76758 6.56445C6.5026 6.95117 6.34505 7.47396 6.29492 8.13281H5.88672L6.05859 4.7168H17.9502Z" fill="#707070"/>
</svg>
